<svg xmlns="http://www.w3.org/2000/svg" viewBox="0 0 960 280" role="img" aria-label="Argos">
  <defs>
    <linearGradient id="bg" x1="0" y1="0" x2="1" y2="1">
      <stop offset="0" stop-color="#1d1a16"/>
      <stop offset="1" stop-color="#0f0d0a"/>
    </linearGradient>
    <linearGradient id="iris" x1="0" y1="0" x2="1" y2="1">
      <stop offset="0" stop-color="#e3a486"/>
      <stop offset="1" stop-color="#cf6446"/>
    </linearGradient>
    <radialGradient id="glow" cx="0.5" cy="0.5" r="0.5">
      <stop offset="0" stop-color="#ffffff" stop-opacity="0.5"/>
      <stop offset="1" stop-color="#ffffff" stop-opacity="0"/>
    </radialGradient>
  </defs>

  <rect width="960" height="280" rx="28" fill="url(#bg)"/>

  <!-- Brand mark: "lens" — eye contour + iris + terminal cursor.
       Geometry mirrors resources/views/components/argos-logo.blade.php,
       scaled from the 40x40 source viewBox to a 160px glyph. -->
  <g transform="translate(60 40)">
    <rect width="200" height="200" rx="44" fill="#161310"/>
    <g transform="translate(20 20) scale(4)">
      <path d="M3 20S9.5 9 20 9s17 11 17 11-6.5 11-17 11S3 20 3 20Z"
            stroke="#d9805f" stroke-width="2.4" fill="none"/>
      <circle cx="20" cy="20" r="8.4" fill="url(#iris)"/>
      <circle cx="20" cy="20" r="6" fill="#1d1a16"/>
      <path d="M17.4 17 20 20l-2.6 3"
            stroke="#e3a486" stroke-width="2" stroke-linecap="round" stroke-linejoin="round" fill="none"/>
      <rect x="21.4" y="21.6" width="2.6" height="1.9" rx=".4" fill="#e3a486"/>
    </g>
    <circle cx="86" cy="84" r="13" fill="url(#glow)"/>
  </g>

  <g transform="translate(312 0)" font-family="ui-sans-serif, system-ui, -apple-system, 'Segoe UI', Roboto, sans-serif" fill="#f7f4ee">
    <text x="0" y="150" font-size="116" font-weight="800" letter-spacing="6">ARGOS</text>
    <text x="6" y="200" font-size="22" font-weight="500" fill="#d9805f" letter-spacing="3">WEB-FIRST DEV AGENT</text>
    <text x="6" y="232" font-size="18" font-weight="400" fill="#9a8f80" letter-spacing="1">concept · implement · diff · push · respond</text>
  </g>
</svg>
